<?xml version="1.0" encoding="UTF-8" standalone="no"?><svg xmlns="http://www.w3.org/2000/svg" xmlns:xlink="http://www.w3.org/1999/xlink" contentStyleType="text/css" height="1137px" preserveAspectRatio="none" style="width:1459px;height:1137px;background:#FFFFFF;" version="1.1" viewBox="0 0 1459 1137" width="1459px" zoomAndPan="magnify"><defs/><g><!--MD5=[e9dc9881b850c1e2d2a8f30edb40e840]
class Widget--><g id="elem_Widget"><rect codeLine="1" fill="#F1F1F1" height="178.375" id="Widget" rx="2.5" ry="2.5" style="stroke:#181818;stroke-width:0.5;" width="274" x="1113.5" y="567"/><ellipse cx="1222.25" cy="583" fill="#ADD1B2" rx="11" ry="11" style="stroke:#181818;stroke-width:1.0;"/><path d="M1225.2188,588.6406 Q1224.6406,588.9375 1224,589.0781 Q1223.3594,589.2344 1222.6563,589.2344 Q1220.1563,589.2344 1218.8281,587.5938 Q1217.5156,585.9375 1217.5156,582.8125 Q1217.5156,579.6875 1218.8281,578.0313 Q1220.1563,576.375 1222.6563,576.375 Q1223.3594,576.375 1224,576.5313 Q1224.6563,576.6875 1225.2188,576.9844 L1225.2188,579.7031 Q1224.5938,579.125 1224,578.8594 Q1223.4063,578.5781 1222.7813,578.5781 Q1221.4375,578.5781 1220.75,579.6563 Q1220.0625,580.7188 1220.0625,582.8125 Q1220.0625,584.9063 1220.75,585.9844 Q1221.4375,587.0469 1222.7813,587.0469 Q1223.4063,587.0469 1224,586.7813 Q1224.5938,586.5 1225.2188,585.9219 L1225.2188,588.6406 Z " fill="#000000"/><text fill="#000000" font-family="sans-serif" font-size="14" lengthAdjust="spacing" textLength="48" x="1242.75" y="587.8467">Widget</text><line style="stroke:#181818;stroke-width:0.5;" x1="1114.5" x2="1386.5" y1="599" y2="599"/><rect fill="none" height="6" style="stroke:#C82930;stroke-width:1.0;" width="6" x="1121.5" y="609.6484"/><text fill="#000000" font-family="sans-serif" font-size="14" lengthAdjust="spacing" textLength="152" x="1133.5" y="615.9951">bg_rect: pygame.Rect</text><rect fill="none" height="6" style="stroke:#C82930;stroke-width:1.0;" width="6" x="1121.5" y="625.9453"/><text fill="#000000" font-family="sans-serif" font-size="14" lengthAdjust="spacing" textLength="184" x="1133.5" y="632.292">bg_color: Tuple[int, int, int]</text><rect fill="none" height="6" style="stroke:#C82930;stroke-width:1.0;" width="6" x="1121.5" y="642.2422"/><text fill="#000000" font-family="sans-serif" font-size="14" lengthAdjust="spacing" textLength="193" x="1133.5" y="648.5889">font_color: Tuple[int, int, int]</text><rect fill="none" height="6" style="stroke:#C82930;stroke-width:1.0;" width="6" x="1121.5" y="658.5391"/><text fill="#000000" font-family="sans-serif" font-size="14" lengthAdjust="spacing" textLength="157" x="1133.5" y="664.8857">font: pygame.font.Font</text><rect fill="none" height="6" style="stroke:#C82930;stroke-width:1.0;" width="6" x="1121.5" y="674.8359"/><text fill="#000000" font-family="sans-serif" font-size="14" lengthAdjust="spacing" textLength="146" x="1133.5" y="681.1826">text: pygame.Surface</text><rect fill="none" height="6" style="stroke:#C82930;stroke-width:1.0;" width="6" x="1121.5" y="691.1328"/><text fill="#000000" font-family="sans-serif" font-size="14" lengthAdjust="spacing" textLength="160" x="1133.5" y="697.4795">text_rect: pygame.Rect</text><line style="stroke:#181818;stroke-width:0.5;" x1="1114.5" x2="1386.5" y1="704.7813" y2="704.7813"/><ellipse cx="1124.5" cy="718.4297" fill="#84BE84" rx="3" ry="3" style="stroke:#038048;stroke-width:1.0;"/><text fill="#000000" font-family="sans-serif" font-size="14" lengthAdjust="spacing" textLength="185" x="1133.5" y="721.7764">change_text(text: str): void</text><ellipse cx="1124.5" cy="734.7266" fill="#84BE84" rx="3" ry="3" style="stroke:#038048;stroke-width:1.0;"/><text fill="#000000" font-family="sans-serif" font-size="14" lengthAdjust="spacing" textLength="248" x="1133.5" y="738.0732">draw(screen: pygame.Surface): void</text></g><!--MD5=[b0d551779ae5a4c43f98061a760028b1]
class Widgets--><g id="elem_Widgets"><rect codeLine="12" fill="#F1F1F1" height="145.7813" id="Widgets" rx="2.5" ry="2.5" style="stroke:#181818;stroke-width:0.5;" width="327" x="7" y="319.5"/><ellipse cx="138.25" cy="335.5" fill="#ADD1B2" rx="11" ry="11" style="stroke:#181818;stroke-width:1.0;"/><path d="M141.2188,341.1406 Q140.6406,341.4375 140,341.5781 Q139.3594,341.7344 138.6563,341.7344 Q136.1563,341.7344 134.8281,340.0938 Q133.5156,338.4375 133.5156,335.3125 Q133.5156,332.1875 134.8281,330.5313 Q136.1563,328.875 138.6563,328.875 Q139.3594,328.875 140,329.0313 Q140.6563,329.1875 141.2188,329.4844 L141.2188,332.2031 Q140.5938,331.625 140,331.3594 Q139.4063,331.0781 138.7813,331.0781 Q137.4375,331.0781 136.75,332.1563 Q136.0625,333.2188 136.0625,335.3125 Q136.0625,337.4063 136.75,338.4844 Q137.4375,339.5469 138.7813,339.5469 Q139.4063,339.5469 140,339.2813 Q140.5938,339 141.2188,338.4219 L141.2188,341.1406 Z " fill="#000000"/><text fill="#000000" font-family="sans-serif" font-size="14" lengthAdjust="spacing" textLength="56" x="158.75" y="340.3467">Widgets</text><line style="stroke:#181818;stroke-width:0.5;" x1="8" x2="333" y1="351.5" y2="351.5"/><rect fill="none" height="6" style="stroke:#C82930;stroke-width:1.0;" width="6" x="15" y="362.1484"/><text fill="#000000" font-family="sans-serif" font-size="14" lengthAdjust="spacing" textLength="144" x="27" y="368.4951">widgets: List[Widget]</text><rect fill="none" height="6" style="stroke:#C82930;stroke-width:1.0;" width="6" x="15" y="378.4453"/><text fill="#000000" font-family="sans-serif" font-size="14" lengthAdjust="spacing" textLength="158" x="27" y="384.792">text_in_widget: List[str]</text><rect fill="none" height="6" style="stroke:#C82930;stroke-width:1.0;" width="6" x="15" y="394.7422"/><text fill="#000000" font-family="sans-serif" font-size="14" lengthAdjust="spacing" textLength="116" x="27" y="401.0889">height_sprite: int</text><rect fill="none" height="6" style="stroke:#C82930;stroke-width:1.0;" width="6" x="15" y="411.0391"/><text fill="#000000" font-family="sans-serif" font-size="14" lengthAdjust="spacing" textLength="109" x="27" y="417.3857">width_sprite: int</text><line style="stroke:#181818;stroke-width:0.5;" x1="8" x2="333" y1="424.6875" y2="424.6875"/><ellipse cx="18" cy="438.3359" fill="#84BE84" rx="3" ry="3" style="stroke:#038048;stroke-width:1.0;"/><text fill="#000000" font-family="sans-serif" font-size="14" lengthAdjust="spacing" textLength="301" x="27" y="441.6826">manip(event: pygame.event.Event): List[str]</text><ellipse cx="18" cy="454.6328" fill="#84BE84" rx="3" ry="3" style="stroke:#038048;stroke-width:1.0;"/><text fill="#000000" font-family="sans-serif" font-size="14" lengthAdjust="spacing" textLength="248" x="27" y="457.9795">draw(screen: pygame.Surface): void</text></g><!--MD5=[96293e8b231702a792e4ba32419ac2da]
class Entry--><g id="elem_Entry"><rect codeLine="21" fill="#F1F1F1" height="178.375" id="Entry" rx="2.5" ry="2.5" style="stroke:#181818;stroke-width:0.5;" width="304" x="369.5" y="303.5"/><ellipse cx="499.75" cy="319.5" fill="#ADD1B2" rx="11" ry="11" style="stroke:#181818;stroke-width:1.0;"/><path d="M502.7188,325.1406 Q502.1406,325.4375 501.5,325.5781 Q500.8594,325.7344 500.1563,325.7344 Q497.6563,325.7344 496.3281,324.0938 Q495.0156,322.4375 495.0156,319.3125 Q495.0156,316.1875 496.3281,314.5313 Q497.6563,312.875 500.1563,312.875 Q500.8594,312.875 501.5,313.0313 Q502.1563,313.1875 502.7188,313.4844 L502.7188,316.2031 Q502.0938,315.625 501.5,315.3594 Q500.9063,315.0781 500.2813,315.0781 Q498.9375,315.0781 498.25,316.1563 Q497.5625,317.2188 497.5625,319.3125 Q497.5625,321.4063 498.25,322.4844 Q498.9375,323.5469 500.2813,323.5469 Q500.9063,323.5469 501.5,323.2813 Q502.0938,323 502.7188,322.4219 L502.7188,325.1406 Z " fill="#000000"/><text fill="#000000" font-family="sans-serif" font-size="14" lengthAdjust="spacing" textLength="35" x="520.25" y="324.3467">Entry</text><line style="stroke:#181818;stroke-width:0.5;" x1="370.5" x2="672.5" y1="335.5" y2="335.5"/><rect fill="none" height="6" style="stroke:#C82930;stroke-width:1.0;" width="6" x="377.5" y="346.1484"/><text fill="#000000" font-family="sans-serif" font-size="14" lengthAdjust="spacing" textLength="185" x="389.5" y="352.4951">text_label: pygame.Surface</text><rect fill="none" height="6" style="stroke:#C82930;stroke-width:1.0;" width="6" x="377.5" y="362.4453"/><text fill="#000000" font-family="sans-serif" font-size="14" lengthAdjust="spacing" textLength="152" x="389.5" y="368.792">bg_rect: pygame.Rect</text><rect fill="none" height="6" style="stroke:#C82930;stroke-width:1.0;" width="6" x="377.5" y="378.7422"/><text fill="#000000" font-family="sans-serif" font-size="14" lengthAdjust="spacing" textLength="184" x="389.5" y="385.0889">bg_color: Tuple[int, int, int]</text><rect fill="none" height="6" style="stroke:#C82930;stroke-width:1.0;" width="6" x="377.5" y="395.0391"/><text fill="#000000" font-family="sans-serif" font-size="14" lengthAdjust="spacing" textLength="193" x="389.5" y="401.3857">font_color: Tuple[int, int, int]</text><rect fill="none" height="6" style="stroke:#C82930;stroke-width:1.0;" width="6" x="377.5" y="411.3359"/><text fill="#000000" font-family="sans-serif" font-size="14" lengthAdjust="spacing" textLength="157" x="389.5" y="417.6826">font: pygame.font.Font</text><rect fill="none" height="6" style="stroke:#C82930;stroke-width:1.0;" width="6" x="377.5" y="427.6328"/><text fill="#000000" font-family="sans-serif" font-size="14" lengthAdjust="spacing" textLength="53" x="389.5" y="433.9795">text: str</text><line style="stroke:#181818;stroke-width:0.5;" x1="370.5" x2="672.5" y1="441.2813" y2="441.2813"/><ellipse cx="380.5" cy="454.9297" fill="#84BE84" rx="3" ry="3" style="stroke:#038048;stroke-width:1.0;"/><text fill="#000000" font-family="sans-serif" font-size="14" lengthAdjust="spacing" textLength="278" x="389.5" y="458.2764">manip(event: pygame.event.Event): void</text><ellipse cx="380.5" cy="471.2266" fill="#84BE84" rx="3" ry="3" style="stroke:#038048;stroke-width:1.0;"/><text fill="#000000" font-family="sans-serif" font-size="14" lengthAdjust="spacing" textLength="248" x="389.5" y="474.5732">draw(screen: pygame.Surface): void</text></g><!--MD5=[fea3dc74c7473bae0133d22265a91e2f]
class Cell--><g id="elem_Cell"><rect codeLine="32" fill="#F1F1F1" height="308.75" id="Cell" rx="2.5" ry="2.5" style="stroke:#181818;stroke-width:0.5;" width="313" x="613" y="822"/><ellipse cx="752.75" cy="838" fill="#ADD1B2" rx="11" ry="11" style="stroke:#181818;stroke-width:1.0;"/><path d="M755.7188,843.6406 Q755.1406,843.9375 754.5,844.0781 Q753.8594,844.2344 753.1563,844.2344 Q750.6563,844.2344 749.3281,842.5938 Q748.0156,840.9375 748.0156,837.8125 Q748.0156,834.6875 749.3281,833.0313 Q750.6563,831.375 753.1563,831.375 Q753.8594,831.375 754.5,831.5313 Q755.1563,831.6875 755.7188,831.9844 L755.7188,834.7031 Q755.0938,834.125 754.5,833.8594 Q753.9063,833.5781 753.2813,833.5781 Q751.9375,833.5781 751.25,834.6563 Q750.5625,835.7188 750.5625,837.8125 Q750.5625,839.9063 751.25,840.9844 Q751.9375,842.0469 753.2813,842.0469 Q753.9063,842.0469 754.5,841.7813 Q755.0938,841.5 755.7188,840.9219 L755.7188,843.6406 Z " fill="#000000"/><text fill="#000000" font-family="sans-serif" font-size="14" lengthAdjust="spacing" textLength="25" x="773.25" y="842.8467">Cell</text><line style="stroke:#181818;stroke-width:0.5;" x1="614" x2="925" y1="854" y2="854"/><rect fill="none" height="6" style="stroke:#C82930;stroke-width:1.0;" width="6" x="621" y="864.6484"/><text fill="#000000" font-family="sans-serif" font-size="14" lengthAdjust="spacing" textLength="127" x="633" y="870.9951">rect: pygame.Rect</text><rect fill="none" height="6" style="stroke:#C82930;stroke-width:1.0;" width="6" x="621" y="880.9453"/><text fill="#000000" font-family="sans-serif" font-size="14" lengthAdjust="spacing" textLength="79" x="633" y="887.292">bomb: bool</text><rect fill="none" height="6" style="stroke:#C82930;stroke-width:1.0;" width="6" x="621" y="897.2422"/><text fill="#000000" font-family="sans-serif" font-size="14" lengthAdjust="spacing" textLength="107" x="633" y="903.5889">state_visual: str</text><rect fill="none" height="6" style="stroke:#C82930;stroke-width:1.0;" width="6" x="621" y="913.5391"/><text fill="#000000" font-family="sans-serif" font-size="14" lengthAdjust="spacing" textLength="200" x="633" y="919.8857">grow_sprite: pygame.Surface</text><rect fill="none" height="6" style="stroke:#C82930;stroke-width:1.0;" width="6" x="621" y="929.8359"/><text fill="#000000" font-family="sans-serif" font-size="14" lengthAdjust="spacing" textLength="190" x="633" y="936.1826">idle_sprite: pygame.Surface</text><rect fill="none" height="6" style="stroke:#C82930;stroke-width:1.0;" width="6" x="621" y="946.1328"/><text fill="#000000" font-family="sans-serif" font-size="14" lengthAdjust="spacing" textLength="190" x="633" y="952.4795">flag_sprite: pygame.Surface</text><rect fill="none" height="6" style="stroke:#C82930;stroke-width:1.0;" width="6" x="621" y="962.4297"/><text fill="#000000" font-family="sans-serif" font-size="14" lengthAdjust="spacing" textLength="206" x="633" y="968.7764">bomb_sprite: pygame.Surface</text><rect fill="none" height="6" style="stroke:#C82930;stroke-width:1.0;" width="6" x="621" y="978.7266"/><text fill="#000000" font-family="sans-serif" font-size="14" lengthAdjust="spacing" textLength="261" x="633" y="985.0732">number_sprites: List[pygame.Surface]</text><line style="stroke:#181818;stroke-width:0.5;" x1="614" x2="925" y1="992.375" y2="992.375"/><ellipse cx="624" cy="1006.0234" fill="#84BE84" rx="3" ry="3" style="stroke:#038048;stroke-width:1.0;"/><text fill="#000000" font-family="sans-serif" font-size="14" lengthAdjust="spacing" textLength="107" x="633" y="1009.3701">is_bomb(): bool</text><ellipse cx="624" cy="1022.3203" fill="#84BE84" rx="3" ry="3" style="stroke:#038048;stroke-width:1.0;"/><text fill="#000000" font-family="sans-serif" font-size="14" lengthAdjust="spacing" textLength="116" x="633" y="1025.667">set_bomb(): void</text><ellipse cx="624" cy="1038.6172" fill="#84BE84" rx="3" ry="3" style="stroke:#038048;stroke-width:1.0;"/><text fill="#000000" font-family="sans-serif" font-size="14" lengthAdjust="spacing" textLength="100" x="633" y="1041.9639">set_flag(): void</text><ellipse cx="624" cy="1054.9141" fill="#84BE84" rx="3" ry="3" style="stroke:#038048;stroke-width:1.0;"/><text fill="#000000" font-family="sans-serif" font-size="14" lengthAdjust="spacing" textLength="142" x="633" y="1058.2607">set_num(n: int): void</text><ellipse cx="624" cy="1071.2109" fill="#84BE84" rx="3" ry="3" style="stroke:#038048;stroke-width:1.0;"/><text fill="#000000" font-family="sans-serif" font-size="14" lengthAdjust="spacing" textLength="84" x="633" y="1074.5576">push(): bool</text><ellipse cx="624" cy="1087.5078" fill="#84BE84" rx="3" ry="3" style="stroke:#038048;stroke-width:1.0;"/><text fill="#000000" font-family="sans-serif" font-size="14" lengthAdjust="spacing" textLength="137" x="633" y="1090.8545">is_excavated(): bool</text><ellipse cx="624" cy="1103.8047" fill="#84BE84" rx="3" ry="3" style="stroke:#038048;stroke-width:1.0;"/><text fill="#000000" font-family="sans-serif" font-size="14" lengthAdjust="spacing" textLength="252" x="633" y="1107.1514">draw(window: pygame.Surface): void</text><ellipse cx="624" cy="1120.1016" fill="#84BE84" rx="3" ry="3" style="stroke:#038048;stroke-width:1.0;"/><text fill="#000000" font-family="sans-serif" font-size="14" lengthAdjust="spacing" textLength="287" x="633" y="1123.4482">draw_true(window: pygame.Surface): void</text></g><!--MD5=[1f24f7b92150e3316908f7910ce81742]
class Grid--><g id="elem_Grid"><rect codeLine="51" fill="#F1F1F1" height="178.375" id="Grid" rx="2.5" ry="2.5" style="stroke:#181818;stroke-width:0.5;" width="303" x="618" y="567"/><ellipse cx="751.25" cy="583" fill="#ADD1B2" rx="11" ry="11" style="stroke:#181818;stroke-width:1.0;"/><path d="M754.2188,588.6406 Q753.6406,588.9375 753,589.0781 Q752.3594,589.2344 751.6563,589.2344 Q749.1563,589.2344 747.8281,587.5938 Q746.5156,585.9375 746.5156,582.8125 Q746.5156,579.6875 747.8281,578.0313 Q749.1563,576.375 751.6563,576.375 Q752.3594,576.375 753,576.5313 Q753.6563,576.6875 754.2188,576.9844 L754.2188,579.7031 Q753.5938,579.125 753,578.8594 Q752.4063,578.5781 751.7813,578.5781 Q750.4375,578.5781 749.75,579.6563 Q749.0625,580.7188 749.0625,582.8125 Q749.0625,584.9063 749.75,585.9844 Q750.4375,587.0469 751.7813,587.0469 Q752.4063,587.0469 753,586.7813 Q753.5938,586.5 754.2188,585.9219 L754.2188,588.6406 Z " fill="#000000"/><text fill="#000000" font-family="sans-serif" font-size="14" lengthAdjust="spacing" textLength="28" x="771.75" y="587.8467">Grid</text><line style="stroke:#181818;stroke-width:0.5;" x1="619" x2="920" y1="599" y2="599"/><rect fill="none" height="6" style="stroke:#C82930;stroke-width:1.0;" width="6" x="626" y="609.6484"/><text fill="#000000" font-family="sans-serif" font-size="14" lengthAdjust="spacing" textLength="131" x="638" y="615.9951">cells: List[List[Cell]]</text><rect fill="none" height="6" style="stroke:#C82930;stroke-width:1.0;" width="6" x="626" y="625.9453"/><text fill="#000000" font-family="sans-serif" font-size="14" lengthAdjust="spacing" textLength="63" x="638" y="632.292">width: int</text><rect fill="none" height="6" style="stroke:#C82930;stroke-width:1.0;" width="6" x="626" y="642.2422"/><text fill="#000000" font-family="sans-serif" font-size="14" lengthAdjust="spacing" textLength="70" x="638" y="648.5889">height: int</text><line style="stroke:#181818;stroke-width:0.5;" x1="619" x2="920" y1="655.8906" y2="655.8906"/><ellipse cx="629" cy="669.5391" fill="#84BE84" rx="3" ry="3" style="stroke:#038048;stroke-width:1.0;"/><text fill="#000000" font-family="sans-serif" font-size="14" lengthAdjust="spacing" textLength="236" x="638" y="672.8857">__init__(width: int, height: int): void</text><ellipse cx="629" cy="685.8359" fill="#84BE84" rx="3" ry="3" style="stroke:#038048;stroke-width:1.0;"/><text fill="#000000" font-family="sans-serif" font-size="14" lengthAdjust="spacing" textLength="277" x="638" y="689.1826">generate_bombs(num_bombs: int): void</text><ellipse cx="629" cy="702.1328" fill="#84BE84" rx="3" ry="3" style="stroke:#038048;stroke-width:1.0;"/><text fill="#000000" font-family="sans-serif" font-size="14" lengthAdjust="spacing" textLength="227" x="638" y="705.4795">count_neighbors(x: int, y: int): int</text><ellipse cx="629" cy="718.4297" fill="#84BE84" rx="3" ry="3" style="stroke:#038048;stroke-width:1.0;"/><text fill="#000000" font-family="sans-serif" font-size="14" lengthAdjust="spacing" textLength="164" x="638" y="721.7764">reveal(x: int, y: int): bool</text><ellipse cx="629" cy="734.7266" fill="#84BE84" rx="3" ry="3" style="stroke:#038048;stroke-width:1.0;"/><text fill="#000000" font-family="sans-serif" font-size="14" lengthAdjust="spacing" textLength="248" x="638" y="738.0732">draw(screen: pygame.Surface): void</text></g><!--MD5=[b6dcce5e5ef3c84b0b048d11301373dd]
class Game--><g id="elem_Game"><rect codeLine="62" fill="#F1F1F1" height="227.2656" id="Game" rx="2.5" ry="2.5" style="stroke:#181818;stroke-width:0.5;" width="404" x="524.5" y="7"/><ellipse cx="701.75" cy="23" fill="#ADD1B2" rx="11" ry="11" style="stroke:#181818;stroke-width:1.0;"/><path d="M704.7188,28.6406 Q704.1406,28.9375 703.5,29.0781 Q702.8594,29.2344 702.1563,29.2344 Q699.6563,29.2344 698.3281,27.5938 Q697.0156,25.9375 697.0156,22.8125 Q697.0156,19.6875 698.3281,18.0313 Q699.6563,16.375 702.1563,16.375 Q702.8594,16.375 703.5,16.5313 Q704.1563,16.6875 704.7188,16.9844 L704.7188,19.7031 Q704.0938,19.125 703.5,18.8594 Q702.9063,18.5781 702.2813,18.5781 Q700.9375,18.5781 700.25,19.6563 Q699.5625,20.7188 699.5625,22.8125 Q699.5625,24.9063 700.25,25.9844 Q700.9375,27.0469 702.2813,27.0469 Q702.9063,27.0469 703.5,26.7813 Q704.0938,26.5 704.7188,25.9219 L704.7188,28.6406 Z " fill="#000000"/><text fill="#000000" font-family="sans-serif" font-size="14" lengthAdjust="spacing" textLength="41" x="722.25" y="27.8467">Game</text><line style="stroke:#181818;stroke-width:0.5;" x1="525.5" x2="927.5" y1="39" y2="39"/><rect fill="none" height="6" style="stroke:#C82930;stroke-width:1.0;" width="6" x="532.5" y="49.6484"/><text fill="#000000" font-family="sans-serif" font-size="14" lengthAdjust="spacing" textLength="63" x="544.5" y="55.9951">grid: Grid</text><rect fill="none" height="6" style="stroke:#C82930;stroke-width:1.0;" width="6" x="532.5" y="65.9453"/><text fill="#000000" font-family="sans-serif" font-size="14" lengthAdjust="spacing" textLength="119" x="544.5" y="72.292">widgets: Widgets</text><rect fill="none" height="6" style="stroke:#C82930;stroke-width:1.0;" width="6" x="532.5" y="82.2422"/><text fill="#000000" font-family="sans-serif" font-size="14" lengthAdjust="spacing" textLength="79" x="544.5" y="88.5889">entry: Entry</text><rect fill="none" height="6" style="stroke:#C82930;stroke-width:1.0;" width="6" x="532.5" y="98.5391"/><text fill="#000000" font-family="sans-serif" font-size="14" lengthAdjust="spacing" textLength="192" x="544.5" y="104.8857">game_engine: GameEngine</text><rect fill="none" height="6" style="stroke:#C82930;stroke-width:1.0;" width="6" x="532.5" y="114.8359"/><text fill="#000000" font-family="sans-serif" font-size="14" lengthAdjust="spacing" textLength="88" x="544.5" y="121.1826">menu: Menu</text><rect fill="none" height="6" style="stroke:#C82930;stroke-width:1.0;" width="6" x="532.5" y="131.1328"/><text fill="#000000" font-family="sans-serif" font-size="14" lengthAdjust="spacing" textLength="115" x="544.5" y="137.4795">game_over: bool</text><line style="stroke:#181818;stroke-width:0.5;" x1="525.5" x2="927.5" y1="144.7813" y2="144.7813"/><ellipse cx="535.5" cy="158.4297" fill="#84BE84" rx="3" ry="3" style="stroke:#038048;stroke-width:1.0;"/><text fill="#000000" font-family="sans-serif" font-size="14" lengthAdjust="spacing" textLength="356" x="544.5" y="161.7764">__init__(width: int, height: int, num_bombs: int): void</text><ellipse cx="535.5" cy="174.7266" fill="#84BE84" rx="3" ry="3" style="stroke:#038048;stroke-width:1.0;"/><text fill="#000000" font-family="sans-serif" font-size="14" lengthAdjust="spacing" textLength="378" x="544.5" y="178.0732">handle_events(events: List[pygame.event.Event]): void</text><ellipse cx="535.5" cy="191.0234" fill="#84BE84" rx="3" ry="3" style="stroke:#038048;stroke-width:1.0;"/><text fill="#000000" font-family="sans-serif" font-size="14" lengthAdjust="spacing" textLength="96" x="544.5" y="194.3701">update(): void</text><ellipse cx="535.5" cy="207.3203" fill="#84BE84" rx="3" ry="3" style="stroke:#038048;stroke-width:1.0;"/><text fill="#000000" font-family="sans-serif" font-size="14" lengthAdjust="spacing" textLength="248" x="544.5" y="210.667">draw(screen: pygame.Surface): void</text><ellipse cx="535.5" cy="223.6172" fill="#84BE84" rx="3" ry="3" style="stroke:#038048;stroke-width:1.0;"/><text fill="#000000" font-family="sans-serif" font-size="14" lengthAdjust="spacing" textLength="70" x="544.5" y="226.9639">run(): void</text></g><!--MD5=[420782f7c2f0c536da4794c8b41bee93]
class GameEngine--><g id="elem_GameEngine"><rect codeLine="76" fill="#F1F1F1" height="194.6719" id="GameEngine" rx="2.5" ry="2.5" style="stroke:#181818;stroke-width:0.5;" width="233" x="780" y="295"/><ellipse cx="847.75" cy="311" fill="#ADD1B2" rx="11" ry="11" style="stroke:#181818;stroke-width:1.0;"/><path d="M850.7188,316.6406 Q850.1406,316.9375 849.5,317.0781 Q848.8594,317.2344 848.1563,317.2344 Q845.6563,317.2344 844.3281,315.5938 Q843.0156,313.9375 843.0156,310.8125 Q843.0156,307.6875 844.3281,306.0313 Q845.6563,304.375 848.1563,304.375 Q848.8594,304.375 849.5,304.5313 Q850.1563,304.6875 850.7188,304.9844 L850.7188,307.7031 Q850.0938,307.125 849.5,306.8594 Q848.9063,306.5781 848.2813,306.5781 Q846.9375,306.5781 846.25,307.6563 Q845.5625,308.7188 845.5625,310.8125 Q845.5625,312.9063 846.25,313.9844 Q846.9375,315.0469 848.2813,315.0469 Q848.9063,315.0469 849.5,314.7813 Q850.0938,314.5 850.7188,313.9219 L850.7188,316.6406 Z " fill="#000000"/><text fill="#000000" font-family="sans-serif" font-size="14" lengthAdjust="spacing" textLength="89" x="868.25" y="315.8467">GameEngine</text><line style="stroke:#181818;stroke-width:0.5;" x1="781" x2="1012" y1="327" y2="327"/><rect fill="none" height="6" style="stroke:#C82930;stroke-width:1.0;" width="6" x="788" y="337.6484"/><text fill="#000000" font-family="sans-serif" font-size="14" lengthAdjust="spacing" textLength="63" x="800" y="343.9951">grid: Grid</text><rect fill="none" height="6" style="stroke:#C82930;stroke-width:1.0;" width="6" x="788" y="353.9453"/><text fill="#000000" font-family="sans-serif" font-size="14" lengthAdjust="spacing" textLength="96" x="800" y="360.292">num_flags: int</text><rect fill="none" height="6" style="stroke:#C82930;stroke-width:1.0;" width="6" x="788" y="370.2422"/><text fill="#000000" font-family="sans-serif" font-size="14" lengthAdjust="spacing" textLength="152" x="800" y="376.5889">num_unexcavated: int</text><line style="stroke:#181818;stroke-width:0.5;" x1="781" x2="1012" y1="383.8906" y2="383.8906"/><ellipse cx="791" cy="397.5391" fill="#84BE84" rx="3" ry="3" style="stroke:#038048;stroke-width:1.0;"/><text fill="#000000" font-family="sans-serif" font-size="14" lengthAdjust="spacing" textLength="158" x="800" y="400.8857">__init__(grid: Grid): void</text><ellipse cx="791" cy="413.8359" fill="#84BE84" rx="3" ry="3" style="stroke:#038048;stroke-width:1.0;"/><text fill="#000000" font-family="sans-serif" font-size="14" lengthAdjust="spacing" textLength="207" x="800" y="417.1826">handle_click(x: int, y: int): bool</text><ellipse cx="791" cy="430.1328" fill="#84BE84" rx="3" ry="3" style="stroke:#038048;stroke-width:1.0;"/><text fill="#000000" font-family="sans-serif" font-size="14" lengthAdjust="spacing" textLength="192" x="800" y="433.4795">check_win_condition(): bool</text><ellipse cx="791" cy="446.4297" fill="#84BE84" rx="3" ry="3" style="stroke:#038048;stroke-width:1.0;"/><text fill="#000000" font-family="sans-serif" font-size="14" lengthAdjust="spacing" textLength="174" x="800" y="449.7764">check_game_over(): bool</text><ellipse cx="791" cy="462.7266" fill="#84BE84" rx="3" ry="3" style="stroke:#038048;stroke-width:1.0;"/><text fill="#000000" font-family="sans-serif" font-size="14" lengthAdjust="spacing" textLength="135" x="800" y="466.0732">update_flags(): void</text><ellipse cx="791" cy="479.0234" fill="#84BE84" rx="3" ry="3" style="stroke:#038048;stroke-width:1.0;"/><text fill="#000000" font-family="sans-serif" font-size="14" lengthAdjust="spacing" textLength="129" x="800" y="482.3701">reset_game(): void</text></g><!--MD5=[f0268dd29ee89052933f031546cb1cab]
class Menu--><g id="elem_Menu"><rect codeLine="88" fill="#F1F1F1" height="178.375" id="Menu" rx="2.5" ry="2.5" style="stroke:#181818;stroke-width:0.5;" width="404" x="1048.5" y="303.5"/><ellipse cx="1226.75" cy="319.5" fill="#ADD1B2" rx="11" ry="11" style="stroke:#181818;stroke-width:1.0;"/><path d="M1229.7188,325.1406 Q1229.1406,325.4375 1228.5,325.5781 Q1227.8594,325.7344 1227.1563,325.7344 Q1224.6563,325.7344 1223.3281,324.0938 Q1222.0156,322.4375 1222.0156,319.3125 Q1222.0156,316.1875 1223.3281,314.5313 Q1224.6563,312.875 1227.1563,312.875 Q1227.8594,312.875 1228.5,313.0313 Q1229.1563,313.1875 1229.7188,313.4844 L1229.7188,316.2031 Q1229.0938,315.625 1228.5,315.3594 Q1227.9063,315.0781 1227.2813,315.0781 Q1225.9375,315.0781 1225.25,316.1563 Q1224.5625,317.2188 1224.5625,319.3125 Q1224.5625,321.4063 1225.25,322.4844 Q1225.9375,323.5469 1227.2813,323.5469 Q1227.9063,323.5469 1228.5,323.2813 Q1229.0938,323 1229.7188,322.4219 L1229.7188,325.1406 Z " fill="#000000"/><text fill="#000000" font-family="sans-serif" font-size="14" lengthAdjust="spacing" textLength="39" x="1247.25" y="324.3467">Menu</text><line style="stroke:#181818;stroke-width:0.5;" x1="1049.5" x2="1451.5" y1="335.5" y2="335.5"/><rect fill="none" height="6" style="stroke:#C82930;stroke-width:1.0;" width="6" x="1056.5" y="346.1484"/><text fill="#000000" font-family="sans-serif" font-size="14" lengthAdjust="spacing" textLength="112" x="1068.5" y="352.4951">options: List[str]</text><rect fill="none" height="6" style="stroke:#C82930;stroke-width:1.0;" width="6" x="1056.5" y="362.4453"/><text fill="#000000" font-family="sans-serif" font-size="14" lengthAdjust="spacing" textLength="137" x="1068.5" y="368.792">selected_option: int</text><rect fill="none" height="6" style="stroke:#C82930;stroke-width:1.0;" width="6" x="1056.5" y="378.7422"/><text fill="#000000" font-family="sans-serif" font-size="14" lengthAdjust="spacing" textLength="157" x="1068.5" y="385.0889">font: pygame.font.Font</text><rect fill="none" height="6" style="stroke:#C82930;stroke-width:1.0;" width="6" x="1056.5" y="395.0391"/><text fill="#000000" font-family="sans-serif" font-size="14" lengthAdjust="spacing" textLength="193" x="1068.5" y="401.3857">font_color: Tuple[int, int, int]</text><rect fill="none" height="6" style="stroke:#C82930;stroke-width:1.0;" width="6" x="1056.5" y="411.3359"/><text fill="#000000" font-family="sans-serif" font-size="14" lengthAdjust="spacing" textLength="184" x="1068.5" y="417.6826">bg_color: Tuple[int, int, int]</text><line style="stroke:#181818;stroke-width:0.5;" x1="1049.5" x2="1451.5" y1="424.9844" y2="424.9844"/><ellipse cx="1059.5" cy="438.6328" fill="#84BE84" rx="3" ry="3" style="stroke:#038048;stroke-width:1.0;"/><text fill="#000000" font-family="sans-serif" font-size="14" lengthAdjust="spacing" textLength="378" x="1068.5" y="441.9795">handle_events(events: List[pygame.event.Event]): void</text><ellipse cx="1059.5" cy="454.9297" fill="#84BE84" rx="3" ry="3" style="stroke:#038048;stroke-width:1.0;"/><text fill="#000000" font-family="sans-serif" font-size="14" lengthAdjust="spacing" textLength="248" x="1068.5" y="458.2764">draw(screen: pygame.Surface): void</text><ellipse cx="1059.5" cy="471.2266" fill="#84BE84" rx="3" ry="3" style="stroke:#038048;stroke-width:1.0;"/><text fill="#000000" font-family="sans-serif" font-size="14" lengthAdjust="spacing" textLength="177" x="1068.5" y="474.5732">get_selected_option(): int</text></g><!--MD5=[16b95320db1948cdea7607b80904a354]
reverse link Game to Widgets--><g id="link_Game_Widgets"><path codeLine="99" d="M512.16,218.14 C459.36,242.64 403.15,269.31 351.5,295 C335.88,302.77 319.6,311.1 303.5,319.5 " fill="none" id="Game-backto-Widgets" style="stroke:#181818;stroke-width:1.0;"/><polygon fill="none" points="524.08,212.62,516.9552,211.508,513.1883,217.6571,520.3132,218.7691,524.08,212.62" style="stroke:#181818;stroke-width:1.0;"/><text fill="#000000" font-family="sans-serif" font-size="13" lengthAdjust="spacing" textLength="8" x="508.6618" y="212.7255">1</text><text fill="#000000" font-family="sans-serif" font-size="13" lengthAdjust="spacing" textLength="8" x="308.8031" y="308.2835">1</text></g><!--MD5=[4fdfe8ac584966c0846b97a8db4f6a6c]
reverse link Game to Entry--><g id="link_Game_Entry"><path codeLine="100" d="M633.18,244.41 C618.08,264.3 602.71,284.54 588.39,303.4 " fill="none" id="Game-backto-Entry" style="stroke:#181818;stroke-width:1.0;"/><polygon fill="none" points="641.05,234.05,634.2369,236.4126,633.7974,243.6103,640.6104,241.2477,641.05,234.05" style="stroke:#181818;stroke-width:1.0;"/><text fill="#000000" font-family="sans-serif" font-size="13" lengthAdjust="spacing" textLength="8" x="627.0401" y="254.2455">1</text><text fill="#000000" font-family="sans-serif" font-size="13" lengthAdjust="spacing" textLength="8" x="585.5981" y="292.4572">1</text></g><!--MD5=[293db8c7853d732357b9bece40e8266c]
reverse link Game to Grid--><g id="link_Game_Grid"><path codeLine="101" d="M736.64,247.34 C744.57,345.69 755.39,479.89 762.41,566.99 " fill="none" id="Game-backto-Grid" style="stroke:#181818;stroke-width:1.0;"/><polygon fill="none" points="735.59,234.32,732.0842,240.6216,736.5527,246.2813,740.0585,239.9798,735.59,234.32" style="stroke:#181818;stroke-width:1.0;"/><text fill="#000000" font-family="sans-serif" font-size="13" lengthAdjust="spacing" textLength="8" x="727.9161" y="254.1547">1</text><text fill="#000000" font-family="sans-serif" font-size="13" lengthAdjust="spacing" textLength="8" x="753.4916" y="556.0546">1</text></g><!--MD5=[86945ee68d7a92951ba1603e0208a558]
reverse link Game to GameEngine--><g id="link_Game_GameEngine"><path codeLine="102" d="M804.53,245.42 C814.91,261.92 825.44,278.64 835.48,294.59 " fill="none" id="Game-backto-GameEngine" style="stroke:#181818;stroke-width:1.0;"/><polygon fill="none" points="797.36,234.05,797.1665,241.2585,803.7461,244.2096,803.9396,237.0011,797.36,234.05" style="stroke:#181818;stroke-width:1.0;"/><text fill="#000000" font-family="sans-serif" font-size="13" lengthAdjust="spacing" textLength="8" x="793.8522" y="254.2455">1</text><text fill="#000000" font-family="sans-serif" font-size="13" lengthAdjust="spacing" textLength="8" x="822.7051" y="283.9328">1</text></g><!--MD5=[0afc60441cad828d709207df36a0613d]
reverse link Game to Menu--><g id="link_Game_Menu"><path codeLine="103" d="M940.45,231.74 C986.8,255.63 1035.23,280.58 1079.67,303.47 " fill="none" id="Game-backto-Menu" style="stroke:#181818;stroke-width:1.0;"/><polygon fill="none" points="928.72,225.7,932.2205,232.0045,939.3864,231.198,935.8859,224.8935,928.72,225.7" style="stroke:#181818;stroke-width:1.0;"/><text fill="#000000" font-family="sans-serif" font-size="13" lengthAdjust="spacing" textLength="8" x="936.7755" y="226.5807">1</text><text fill="#000000" font-family="sans-serif" font-size="13" lengthAdjust="spacing" textLength="8" x="1057.1919" y="292.533">1</text></g><!--MD5=[1191dd1d5ab0127813483801b04d97cc]
reverse link GameEngine to Grid--><g id="link_GameEngine_Grid"><path codeLine="104" d="M843.78,502.05 C833.28,523.68 822.37,546.14 812.25,566.98 " fill="none" id="GameEngine-backto-Grid" style="stroke:#181818;stroke-width:1.0;"/><polygon fill="none" points="849.57,490.13,843.3517,493.7814,844.3305,500.9257,850.5488,497.2744,849.57,490.13" style="stroke:#181818;stroke-width:1.0;"/><text fill="#000000" font-family="sans-serif" font-size="13" lengthAdjust="spacing" textLength="8" x="837.989" y="509.6051">1</text><text fill="#000000" font-family="sans-serif" font-size="13" lengthAdjust="spacing" textLength="8" x="807.459" y="556.0438">1</text></g><!--MD5=[e2ab5266c6d6ec3401da9a0ef290c068]
link Menu to Widget--><g id="link_Menu_Widget"><path codeLine="105" d="M1250.5,481.67 C1250.5,509.1 1250.5,539.34 1250.5,566.77 " fill="none" id="Menu-Widget" style="stroke:#181818;stroke-width:1.0;"/><text fill="#000000" font-family="sans-serif" font-size="13" lengthAdjust="spacing" textLength="54" x="1251.5" y="533.0669">contains</text><text fill="#000000" font-family="sans-serif" font-size="13" lengthAdjust="spacing" textLength="8" x="1242.1563" y="502.0341">1</text><text fill="#000000" font-family="sans-serif" font-size="13" lengthAdjust="spacing" textLength="7" x="1243.2102" y="555.8164">*</text></g><!--MD5=[82429eb4f0d2c56b3cb1f8926261783c]
reverse link Grid to Cell--><g id="link_Grid_Cell"><path codeLine="106" d="M769.5,758.39 C769.5,778.66 769.5,800.37 769.5,821.95 " fill="none" id="Grid-backto-Cell" style="stroke:#181818;stroke-width:1.0;"/><polygon fill="none" points="769.5,745.3,765.5,751.3,769.5,757.3,773.5,751.3,769.5,745.3" style="stroke:#181818;stroke-width:1.0;"/><text fill="#000000" font-family="sans-serif" font-size="13" lengthAdjust="spacing" textLength="54" x="770.5" y="788.0669">contains</text><text fill="#000000" font-family="sans-serif" font-size="13" lengthAdjust="spacing" textLength="8" x="761.1688" y="765.3731">1</text><text fill="#000000" font-family="sans-serif" font-size="13" lengthAdjust="spacing" textLength="7" x="762.3305" y="811.1769">*</text></g><!--MD5=[e3cdef17acdcf4518bd32b2648328ee2]
@startuml
class Widget {
  - bg_rect: pygame.Rect
  - bg_color: Tuple[int, int, int]
  - font_color: Tuple[int, int, int]
  - font: pygame.font.Font
  - text: pygame.Surface
  - text_rect: pygame.Rect
  + change_text(text: str): void
  + draw(screen: pygame.Surface): void
}

class Widgets {
  - widgets: List[Widget]
  - text_in_widget: List[str]
  - height_sprite: int
  - width_sprite: int
  + manip(event: pygame.event.Event): List[str]
  + draw(screen: pygame.Surface): void
}

class Entry {
  - text_label: pygame.Surface
  - bg_rect: pygame.Rect
  - bg_color: Tuple[int, int, int]
  - font_color: Tuple[int, int, int]
  - font: pygame.font.Font
  - text: str
  + manip(event: pygame.event.Event): void
  + draw(screen: pygame.Surface): void
}

class Cell {
  - rect: pygame.Rect
  - bomb: bool
  - state_visual: str
  - grow_sprite: pygame.Surface
  - idle_sprite: pygame.Surface
  - flag_sprite: pygame.Surface
  - bomb_sprite: pygame.Surface
  - number_sprites: List[pygame.Surface]
  + is_bomb(): bool
  + set_bomb(): void
  + set_flag(): void
  + set_num(n: int): void
  + push(): bool
  + is_excavated(): bool
  + draw(window: pygame.Surface): void
  + draw_true(window: pygame.Surface): void
}

class Grid {
  - cells: List[List[Cell]]
  - width: int
  - height: int
  + __init__(width: int, height: int): void
  + generate_bombs(num_bombs: int): void
  + count_neighbors(x: int, y: int): int
  + reveal(x: int, y: int): bool
  + draw(screen: pygame.Surface): void
}

class Game {
  - grid: Grid
  - widgets: Widgets
  - entry: Entry
  - game_engine: GameEngine
  - menu: Menu
  - game_over: bool
  + __init__(width: int, height: int, num_bombs: int): void
  + handle_events(events: List[pygame.event.Event]): void
  + update(): void
  + draw(screen: pygame.Surface): void
  + run(): void
}

class GameEngine {
  - grid: Grid
  - num_flags: int
  - num_unexcavated: int
  + __init__(grid: Grid): void
  + handle_click(x: int, y: int): bool
  + check_win_condition(): bool
  + check_game_over(): bool
  + update_flags(): void
  + reset_game(): void
}

class Menu {
  - options: List[str]
  - selected_option: int
  - font: pygame.font.Font
  - font_color: Tuple[int, int, int]
  - bg_color: Tuple[int, int, int]
  + handle_events(events: List[pygame.event.Event]): void
  + draw(screen: pygame.Surface): void
  + get_selected_option(): int
}

Game "1" o- - "1" Widgets
Game "1" o- - "1" Entry
Game "1" o- - "1" Grid
Game "1" o- - "1" GameEngine
Game "1" o- - "1" Menu
GameEngine "1" o- - "1" Grid
Menu "1" - - "*" Widget : contains
Grid "1" o- - "*" Cell : contains
@enduml

PlantUML version 1.2022.7(Mon Aug 22 17:01:30 UTC 2022)
(GPL source distribution)
Java Runtime: OpenJDK Runtime Environment
JVM: OpenJDK 64-Bit Server VM
Default Encoding: UTF-8
Language: en
Country: null
--></g></svg>